<?xml version="1.0" ?><svg id="Layer_1" style="enable-background:new 0 0 512 512;" version="1.1" viewBox="0 0 512 512" xml:space="preserve" xmlns="http://www.w3.org/2000/svg" xmlns:xlink="http://www.w3.org/1999/xlink"><style type="text/css">
	.st0{fill:#E25D55;}
	.st1{fill:#DB3429;}
	.st2{fill:#B24E10;}
	.st3{fill:#F7C9AB;}
	.st4{fill:#F3AB7D;}
	.st5{fill:#EBEAE0;}
	.st6{fill:#D7D5C1;}
	.st7{fill-rule:evenodd;clip-rule:evenodd;fill:#B24E10;}
	.st8{fill:#F5F4EF;}
	.st9{fill:#E96B4E;}
	.st10{fill:#57130F;}
</style><g id="XMLID_1_"><g id="XMLID_4224_"><path class="st0" d="M286,325c72.3,0,104.3-17,104.3-17l-9.3-42.3l40,15.3c0,0-40-98.7-40-160.7S316.3,5,256,5    c-60.3,0-125,53.3-125,115.3S91,281,91,281l40-15.3l-9.3,42.3c0,0,32,17,104.3,17H286L286,325z" id="XMLID_4283_"/><path class="st1" d="M381,191.1L187,268v40c0,0-37.3-46.7-36.3-96c0,0-13.5,41-19.7,53.7l-9.3,42.3    c0,0,32,17,104.3,17h60C331.3,325,381,241,381,191.1" id="XMLID_4282_"/><path class="st2" d="M286,287h-60v38l-103.8,48.4c-18.2,8.5-31,25.6-34,45.5L75,507h362l-13.2-88.1    c-3-19.9-15.7-37-34-45.5L286,325V287L286,287z" id="XMLID_4281_"/><path class="st3" d="M343,351.6c0,0-15,55.4-87,55.4s-87-55.4-87-55.4l57-26.6v-38h60v38L343,351.6L343,351.6z" id="XMLID_4280_"/><path class="st4" d="M286,316.3V287h-60v29.3c16.2,7.8,30,11.7,30,11.7S269.8,324.1,286,316.3" id="XMLID_4279_"/><path class="st3" d="M343,226c25.5,0,38-16.8,38-34.9S354.9,170,351,170L343,226L343,226z" id="XMLID_4278_"/><path class="st4" d="M345.2,210.8l23.3-23.8c0,0,3.1,34.1-25.5,39L345.2,210.8L345.2,210.8z" id="XMLID_4277_"/><path class="st3" d="M187,167.5v100.7c22,26.6,69,39.8,69,39.8s50-14,71-42.3c20.6-27.8,24-95.7,24-95.7    c-39.7,0-95-84-95-84L187,167.5L187,167.5z" id="XMLID_4276_"/><path class="st4" d="M256,114c13.7,22.5,62.6,54.7,93.1,55.9C309.6,167.4,256,86,256,86l-69,81.5v100.7    l18.3-101.6C216,157.7,256,114,256,114" id="XMLID_4275_"/><path class="st5" d="M131,507l156.3-152.1c19.7-19.2,46.1-29.9,73.6-29.9c42,0,76.1,34.1,76.1,76.1    c0,9.8-1.9,19.6-5.6,28.7L400,507H131L131,507z" id="XMLID_4274_"/><path class="st6" d="M416,467.8L400,507H131l95.8-93.3C205,435.2,211,472.5,211,472.5c4,15.5,70,21.5,100.5,21.5    C311.5,494,404.8,494.9,416,467.8" id="XMLID_4273_"/><path class="st3" d="M350.9,340.3c37.2,0,37.9,65.3,20.6,92s-57.8,28-93.4,28s-39.2-39-11-67.3    C295.4,364.7,318.3,340.3,350.9,340.3" id="XMLID_4272_"/><path class="st2" d="M298.2,399.5c-2.9,0-5.4-0.7-7.5-2.2c-7-4.8-5.8-14.8-5.6-16l9.9,1.4l-5-0.7l5,0.7    c-0.2,1.7,0,5.4,1.4,6.4c1.3,0.9,5.5,0.6,12.7-3.4l4.8,8.8C307.7,397.8,302.5,399.5,298.2,399.5" id="XMLID_4271_"/><path class="st2" d="M347.8,418.6c-2.4,0-4.8-0.4-7-1.3c-10-3.9-13-15.2-13.1-15.7l9.7-2.5    c0,0.1,1.9,6.9,7.1,8.9c4.9,1.9,11.3-1.2,15.8-4.2l5.5,8.4C359.2,416.4,353.2,418.6,347.8,418.6" id="XMLID_4270_"/><polygon class="st7" id="XMLID_4269_" points="286.2,422.3 304.2,428.8 300.8,438.2 282.8,431.7 286.2,422.3   "/><path class="st1" d="M339,357.8c-3,1.5-4.8,3.1-7,4.9c-1.7,1.4-2.4,4.5-1.4,7.3c0.6,1.7,2.1,4.5,6.2,4.5    c4,0,6-1,6.8-1.7c0.5-0.4,1.3-1,1.3-1.8c0-1.4-1.9-3.3-5.9-3.3V357.8L339,357.8z M336.7,384.5c-7.3,0-13.3-4.3-15.7-11.2    c-2.4-6.9-0.5-14.5,4.6-18.5c14.8-11.6,32.5-17.4,33.2-17.6l3.1,9.5c-0.1,0-11.6,3.8-23.1,11c10.3,0.1,15.9,6.9,15.9,13.3    c0,3.8-1.9,7.4-5.2,9.8C346.4,383.2,342,384.5,336.7,384.5" id="XMLID_4266_"/><path class="st1" d="M396,57.6c-9.7-24.9-35-23.4-35,4.9c0,28.3,35,47.5,35,47.5s35-19.2,35-47.5    C431,34.2,405.7,32.6,396,57.6" id="XMLID_4265_"/><path class="st8" d="M194,187c2.7-1.9,9.2-5.9,18-6c9-0.1,15.3,4.8,18,5.8l4,12.2h-28    C199.4,199,194,193.6,194,187" id="XMLID_4264_"/><path class="st8" d="M318,187c-2.7-1.9-9.2-5.9-18-6c-9-0.1-15.3,4.8-18,5.8l-4,12.2h28    C312.6,199,318,193.6,318,187" id="XMLID_4263_"/><path class="st9" d="M256,262.1c-18.6,0-29.7-11.4-31.7-13.7l7.5-6.7c1,1.1,9.7,10.3,24.3,10.3    c0.1,0,0.2,0,0.3,0c14.1-0.1,22.4-8.6,23.9-10.3l7.5,6.7c-2,2.3-13,13.5-31.3,13.7C256.3,262.1,256.1,262.1,256,262.1" id="XMLID_4262_"/><path class="st2" d="M192.5,161.3l-5.1-8.6c5.2-3.1,13.6-6.7,24.5-6.7c0.1,0,0.2,0,0.3,0    c10.8,0.1,19.1,3.7,24.3,6.7l-5.1,8.6c-4.1-2.4-10.7-5.3-19.2-5.3C203.4,155.9,196.7,158.9,192.5,161.3" id="XMLID_4261_"/><polygon class="st7" id="XMLID_4260_" points="204,181 214,181 214,199 204,199 204,181   "/><polygon class="st7" id="XMLID_4259_" points="210,181 220,181 220,199 210,199 210,181   "/><path class="st2" d="M194,192h-4v-10h2.5c6-3.9,12.7-6,19.5-6c8.2,0,14.2,3.2,17.9,5.1c0.7,0.4,1.6,0.8,1.9,0.9    l-3.4,9.4c-1-0.4-2-0.9-3.2-1.5c-3.1-1.7-7.4-4-12.9-4c0,0-0.1,0-0.1,0c-5.2,0-10.5,1.8-15.2,5.1C196,191.7,195,192,194,192" id="XMLID_4258_"/><path class="st2" d="M319.5,161.3c-4.1-2.4-11-5.4-19.7-5.3c-8.5,0-15.2,2.9-19.2,5.3l-5.1-8.6    c5.1-3,13.5-6.6,24.3-6.7c11-0.1,19.6,3.6,24.8,6.7L319.5,161.3L319.5,161.3z" id="XMLID_4257_"/><polygon class="st7" id="XMLID_4256_" points="298,181 308,181 308,199 298,199 298,181   "/><polygon class="st7" id="XMLID_4255_" points="292,181 302,181 302,199 292,199 292,181   "/><path class="st2" d="M322,192h-4c-1,0-2-0.3-2.9-0.9c-4.7-3.3-9.9-5.1-15.2-5.1h-0.1c-5.6,0-9.8,2.3-12.9,4    c-1.2,0.6-2.2,1.2-3.2,1.5l-3.4-9.4c0.3-0.1,1.2-0.6,1.9-0.9c3.6-1.9,9.7-5.2,17.9-5.1c6.8,0,13.5,2.1,19.5,6h2.5V192L322,192z" id="XMLID_4254_"/><path class="st0" d="M371.1,436.1c-1.7,4.2-9.3,5-17,1.9c-7.7-3.1-12.5-9-10.9-13.2c1.7-4.2,9.3-5,17-1.9    C367.9,426.1,372.8,432,371.1,436.1" id="XMLID_4253_"/><path class="st0" d="M288.1,406.1c-1.7,4.2-9.3,5-17,1.9c-7.7-3.1-12.5-9-10.9-13.2c1.7-4.2,9.3-5,17-1.9    C284.9,396.1,289.8,402,288.1,406.1" id="XMLID_4252_"/></g><g id="XMLID_4924_"><g id="XMLID_642_"><path class="st10" d="M343,231v-10c24.4,0,33-16.1,33-29.9c0-14.4-24.8-16.1-25-16.1v-10c6.9,0,35,4.6,35,26.1     C386,210.3,372.5,231,343,231z" id="XMLID_4674_"/></g><g id="XMLID_2532_"><path class="st10" d="M310.1,341.7l-26.2-12.2c-1.8-0.8-2.9-2.6-2.9-4.5v-28.7h10v25.5l23.3,10.9L310.1,341.7z" id="XMLID_4673_"/></g><g id="XMLID_490_"><path class="st10" d="M437,512H75c-1.5,0-2.8-0.6-3.8-1.7c-0.9-1.1-1.4-2.6-1.2-4l13.2-88.1     c3.2-21.6,17-40,36.8-49.3l100.9-47v-25.5h10V325c0,1.9-1.1,3.7-2.9,4.5l-103.8,48.4c-16.8,7.8-28.4,23.4-31.2,41.7L80.8,502     h350.4l-9.1-60.7l9.9-1.5l10,66.5c0.2,1.4-0.2,2.9-1.2,4C439.8,511.4,438.5,512,437,512z" id="XMLID_4672_"/></g><g id="XMLID_1001_"><path class="st10" d="M256,313c-0.5,0-0.9-0.1-1.3-0.2c-2-0.6-48.8-13.9-71.5-41.4c-0.7-0.9-1.1-2-1.1-3.2     V167.5c0-1.2,0.4-2.3,1.2-3.2l69-81.5c1-1.2,2.5-1.9,4.1-1.8c1.6,0.1,3,0.9,3.9,2.2c15,22.7,60.5,81.7,90.8,81.8     c1.4,0,2.7,0.6,3.6,1.6c0.9,1,1.4,2.3,1.4,3.7c-0.1,2.8-3.7,69.7-25,98.4c-21.8,29.4-71.6,43.6-73.7,44.2     C256.9,312.9,256.5,313,256,313z M192,266.4c19.1,21.8,56.4,34.1,64,36.4c8-2.4,49.1-16,67-40.1c16.4-22.1,21.5-72.4,22.7-88.1     c-35.2-5.5-77.3-62.1-90.1-80.3L192,169.3V266.4z" id="XMLID_4392_"/></g><g id="XMLID_650_"><rect class="st10" height="31.6" id="XMLID_3832_" transform="matrix(0.7139 0.7003 -0.7003 0.7139 241.1293 -193.569)" width="10" x="352.4" y="182.5"/></g><g id="XMLID_638_"><path class="st10" d="M256,262.1c-18.6,0-29.7-11.4-31.7-13.7l7.5-6.7c1,1.1,9.7,10.3,24.3,10.3     c0.1,0,0.2,0,0.3,0c14.1-0.1,22.4-8.6,23.9-10.3l7.5,6.7c-2,2.3-13,13.5-31.3,13.7C256.3,262.1,256.1,262.1,256,262.1z" id="XMLID_3831_"/></g><g id="XMLID_635_"><path class="st10" d="M192.5,161.3l-5.1-8.6c5.2-3.1,13.8-6.7,24.8-6.7c10.8,0.1,19.1,3.7,24.3,6.7l-5.1,8.6     c-4.1-2.4-10.7-5.3-19.2-5.3c-0.1,0-0.2,0-0.2,0C203.4,156,196.7,158.9,192.5,161.3z" id="XMLID_3830_"/></g><g id="XMLID_634_"><rect class="st10" height="18" id="XMLID_3829_" width="10" x="204" y="181"/></g><g id="XMLID_633_"><rect class="st10" height="18" id="XMLID_3828_" width="10" x="210" y="181"/></g><g id="XMLID_632_"><path class="st10" d="M194,192h-4v-10h2.5c6-3.9,12.7-6,19.5-6c0.1,0,0.1,0,0.2,0c8.1,0,14.1,3.2,17.7,5.1     c0.7,0.4,1.6,0.8,1.9,0.9l-3.4,9.4c-1-0.4-2-0.9-3.2-1.5c-3.1-1.7-7.4-4-12.9-4c0,0-0.1,0-0.1,0c-5.2,0-10.5,1.8-15.2,5.1     C196,191.7,195,192,194,192z" id="XMLID_3827_"/></g><g id="XMLID_556_"><path class="st10" d="M319.5,161.3c-4.2-2.4-10.9-5.3-19.7-5.3c-8.6,0-15.2,2.9-19.2,5.3l-5.1-8.6     c5.1-3,13.5-6.6,24.3-6.7c11,0,19.6,3.6,24.8,6.7L319.5,161.3z" id="XMLID_3826_"/></g><g id="XMLID_555_"><rect class="st10" height="18" id="XMLID_3825_" width="10" x="298" y="181"/></g><g id="XMLID_551_"><rect class="st10" height="18" id="XMLID_3824_" width="10" x="292" y="181"/></g><g id="XMLID_492_"><path class="st10" d="M322,192h-4c-1,0-2-0.3-2.9-0.9c-4.7-3.3-9.9-5.1-15.2-5.1c0,0-0.1,0-0.1,0     c-5.6,0-9.8,2.3-12.9,4c-1.2,0.6-2.2,1.2-3.2,1.5l-3.4-9.4c0.3-0.1,1.2-0.6,1.9-0.9c3.6-1.9,9.6-5.1,17.7-5.1c0.1,0,0.1,0,0.2,0     c6.8,0,13.5,2.1,19.5,6h2.5V192z" id="XMLID_3823_"/></g><g id="XMLID_792_"><path class="st10" d="M400,512H131c-2,0-3.9-1.2-4.6-3.1c-0.8-1.9-0.3-4,1.1-5.5l156.3-152.1     c20.8-20.2,48.1-31.3,77.1-31.3c44.7,0,81.1,36.4,81.1,81.1c0,10.5-2,20.8-6,30.6l-31.4,77.2C403.9,510.8,402,512,400,512z      M143.3,502h253.3l30.1-74.1c3.5-8.5,5.2-17.6,5.2-26.8c0-39.2-31.9-71.1-71.1-71.1c-26.3,0-51.2,10.1-70.1,28.5L143.3,502z" id="XMLID_3820_"/></g><g id="XMLID_2530_"><path class="st10" d="M278,465.3c-15,0-27-6.9-32-19c-6.9-16.6,0.2-39.4,17.6-56.9l3.2-3.2     c27.2-27.3,50.7-50.9,84.1-50.9c12.5,0,22.5,6.3,28.9,18.1c12.7,23.4,8.3,62.4-4.1,81.6c-16,24.8-50,29-77.8,30l-0.3-10     c25.4-0.9,56.2-4.6,69.7-25.5c10.7-16.5,14.6-51.3,3.7-71.4c-4.7-8.6-11.4-12.9-20.1-12.9c-29.2,0-50.3,21.2-77,48l-3.2,3.2     c-14.6,14.6-20.9,33.1-15.5,46c3.5,8.4,11.8,12.8,22.8,12.8V465.3z" id="XMLID_3819_"/></g><g id="XMLID_811_"><path class="st10" d="M298.2,399.5c-2.9,0-5.4-0.7-7.5-2.2c-7-4.8-5.8-14.8-5.6-16l9.9,1.4l-5-0.7l5,0.7     c-0.2,1.7,0,5.4,1.4,6.4c1.3,0.9,5.5,0.6,12.7-3.4l4.8,8.8C307.7,397.8,302.5,399.5,298.2,399.5z" id="XMLID_3818_"/></g><g id="XMLID_812_"><path class="st10" d="M347.8,418.6c-2.5,0-4.8-0.4-7-1.3c-10-3.9-13-15.2-13.1-15.7l9.7-2.5     c0,0.1,1.9,6.9,7.1,8.9c4.9,1.9,11.3-1.2,15.8-4.2l5.5,8.4C359.2,416.4,353.2,418.6,347.8,418.6z" id="XMLID_3817_"/></g><g id="XMLID_814_"><rect class="st10" height="10" id="XMLID_3816_" transform="matrix(0.9406 0.3396 -0.3396 0.9406 163.5795 -74.109)" width="19.1" x="283.9" y="425.2"/></g><g id="XMLID_813_"><path class="st10" d="M336.8,384.5c-7.3,0-13.3-4.3-15.7-11.2c-2.4-6.9-0.5-14.5,4.6-18.5     c14.8-11.6,32.5-17.4,33.2-17.6l3.1,9.5c-0.1,0-11.6,3.8-23.1,11c10.3,0.1,15.9,6.9,15.9,13.3c0,3.8-1.9,7.4-5.2,9.8     C346.4,383.2,342,384.5,336.8,384.5z M339,357.8c-3,1.5-4.8,3.1-7,4.9c-1.7,1.4-2.4,4.5-1.4,7.3c0.6,1.7,2.1,4.5,6.2,4.5     c4,0,6-1,6.8-1.7c0.5-0.4,1.3-1,1.3-1.8c0-1.4-1.9-3.3-5.9-3.3V357.8z" id="XMLID_3813_"/></g><g id="XMLID_844_"><path class="st10" d="M206.1,473.3c-0.3-1.6-6.1-40.3,17.5-63.3l7,7.2c-19.9,19.3-14.6,54.2-14.6,54.6     L206.1,473.3z" id="XMLID_3812_"/></g><g id="XMLID_491_"><path class="st10" d="M234.6,410.3c-31.8-5.4-49.9-22.4-59.4-35.8l8.1-5.8c8.4,11.8,24.5,26.9,53,31.7     L234.6,410.3z" id="XMLID_3811_"/></g><g id="XMLID_2531_"><path class="st10" d="M226,330c-72.7,0-105.3-16.9-106.7-17.6c-2-1.1-3-3.3-2.5-5.5l7.3-33.3l-31.3,12     c-1.9,0.7-4,0.3-5.4-1.2c-1.4-1.4-1.8-3.5-1.1-5.4c0.4-1,39.6-98.5,39.6-158.8c0-30.3,15.1-61.2,41.6-84.7     C193.1,13,225.3,0,256,0c20.1,0,41.2,5.6,60.8,16.3c19.3,10.5,36,25.1,48.2,42.3l-8.1,5.8C333.8,31.9,293.2,10,256,10     c-54.4,0-120,49.2-120,110.3c0,50.9-25.9,124.6-36.3,152l29.5-11.3c1.7-0.7,3.7-0.3,5.1,0.9s2,3.1,1.6,4.9l-8.5,38.4     c9.9,4.1,41.5,14.9,98.6,14.9V330z" id="XMLID_3792_"/></g><g id="XMLID_901_"><path class="st10" d="M286,330v-10c57,0,88.7-10.8,98.6-14.9l-8.5-38.4c-0.4-1.8,0.2-3.7,1.6-4.9     c1.4-1.2,3.3-1.5,5.1-0.9l29.5,11.3c-10.3-27.3-36.3-101-36.3-152c0-7.6-1-15.3-3.1-22.9l9.6-2.6c2.3,8.4,3.5,17,3.5,25.5     c0,60.3,39.2,157.8,39.6,158.8c0.7,1.8,0.3,4-1.1,5.4s-3.5,1.9-5.4,1.2l-31.3-12l7.3,33.3c0.5,2.2-0.6,4.4-2.5,5.5     C391.3,313.1,358.7,330,286,330z" id="XMLID_3791_"/></g><g id="XMLID_995_"><path class="st10" d="M396,115c-0.8,0-1.7-0.2-2.4-0.6c-1.5-0.8-37.6-21-37.6-51.9c0-17.7,8.7-25.6,16.9-27.2     c7.3-1.4,16.4,1.9,23.1,11.6c6.7-9.7,15.8-12.9,23.1-11.6c8.2,1.5,16.9,9.5,16.9,27.2c0,30.9-36.1,51-37.6,51.9     C397.7,114.8,396.8,115,396,115z M376.2,45c-0.5,0-1,0-1.4,0.1c-5.4,1-8.8,7.7-8.8,17.4c0,20.9,22.5,36.9,30,41.7     c7.5-4.8,30-20.8,30-41.7c0-9.7-3.4-16.3-8.8-17.4c-4.9-0.9-12.2,3.1-16.6,14.3c-0.7,1.9-2.6,3.2-4.7,3.2s-3.9-1.3-4.7-3.2     C387.4,49.3,381,45,376.2,45z" id="XMLID_3655_"/></g><g id="XMLID_640_"><path class="st10" d="M187,313c-1.5,0-2.9-0.7-3.9-1.9c-1.6-2-38.5-48.7-37.4-99.2l10,0.2     C155,244,171.3,275.2,182,292v-24h10v40c0,2.1-1.3,4-3.3,4.7C188.1,312.9,187.6,313,187,313z" id="XMLID_3610_"/></g><g id="XMLID_1017_"><path class="st10" d="M312.6,499c-0.7,0-1.1,0-1.2,0l0.1-10c34.8,0.3,92.7-5.7,99.8-23.2l9.3,3.8     c-5.4,13.2-25.1,21.9-60.4,26.4C338.3,498.8,317.8,499,312.6,499z" id="XMLID_3002_"/></g></g></g></svg>